<svg width="20" height="19" viewBox="0 0 20 19" fill="none" xmlns="http://www.w3.org/2000/svg">
<g filter="url(#filter0_d_1_174)">
<path d="M18.0682 1.76033L11.1932 16.7603C11.1357 16.886 11.0381 16.989 10.9158 17.0533C10.7935 17.1177 10.6533 17.1396 10.5172 17.1158C10.3811 17.092 10.2567 17.0237 10.1635 16.9217C10.0703 16.8197 10.0135 16.6896 10.0021 16.5519L9.42083 9.57896L2.44789 8.99771C2.31017 8.98627 2.18013 8.92951 2.0781 8.8363C1.97607 8.7431 1.90781 8.61871 1.88399 8.48258C1.86017 8.34646 1.88213 8.20628 1.94645 8.08397C2.01077 7.96166 2.11381 7.86411 2.23945 7.80658L17.2395 0.93158C17.3554 0.878438 17.4849 0.862048 17.6104 0.884614C17.736 0.907179 17.8516 0.967618 17.9418 1.05781C18.032 1.14801 18.0924 1.26365 18.115 1.38919C18.1375 1.51474 18.1212 1.64418 18.068 1.76014L18.0682 1.76033Z" fill="#080809"/>
</g>
<defs>
<filter id="filter0_d_1_174" x="-2.12537" y="0.874756" width="24.2502" height="24.2504" filterUnits="userSpaceOnUse" color-interpolation-filters="sRGB">
<feFlood flood-opacity="0" result="BackgroundImageFix"/>
<feColorMatrix in="SourceAlpha" type="matrix" values="0 0 0 0 0 0 0 0 0 0 0 0 0 0 0 0 0 0 127 0" result="hardAlpha"/>
<feOffset dy="4"/>
<feGaussianBlur stdDeviation="2"/>
<feComposite in2="hardAlpha" operator="out"/>
<feColorMatrix type="matrix" values="0 0 0 0 0 0 0 0 0 0 0 0 0 0 0 0 0 0 0.25 0"/>
<feBlend mode="normal" in2="BackgroundImageFix" result="effect1_dropShadow_1_174"/>
<feBlend mode="normal" in="SourceGraphic" in2="effect1_dropShadow_1_174" result="shape"/>
</filter>
</defs>
</svg>
