<svg width="21" height="13" viewBox="0 0 21 13" fill="none" xmlns="http://www.w3.org/2000/svg">
<path d="M20.0625 1.539C19.3373 1.8 18.5647 1.973 17.7591 2.057C18.5878 1.651 19.2203 1.013 19.5177 0.244C18.745 0.622 17.8919 0.889 16.9827 1.038C16.249 0.397 15.2033 0 14.0626 0C11.8493 0 10.0675 1.474 10.0675 3.281C10.0675 3.541 10.0943 3.791 10.1602 4.029C6.83663 3.896 3.89578 2.589 1.92019 0.598C1.57528 1.089 1.37297 1.651 1.37297 2.256C1.37297 3.392 2.08594 4.399 3.14869 4.982C2.50641 4.972 1.87631 4.819 1.3425 4.578C1.3425 4.588 1.3425 4.601 1.3425 4.614C1.3425 6.208 2.72822 7.532 4.54537 7.837C4.21997 7.91 3.86531 7.945 3.49725 7.945C3.24131 7.945 2.98294 7.933 2.74041 7.889C3.25837 9.188 4.72819 10.143 6.47588 10.174C5.11575 11.047 3.38878 11.573 1.51922 11.573C1.19138 11.573 0.876937 11.561 0.5625 11.528C2.33334 12.465 4.43203 13 6.69525 13C14.0516 13 18.0735 8 18.0735 3.666C18.0735 3.521 18.0674 3.381 18.0589 3.242C18.8523 2.78 19.5189 2.203 20.0625 1.539Z" fill="#080809"/>
</svg>
